<svg id="ecehnabsoetd1" xmlns="http://www.w3.org/2000/svg" xmlns:xlink="http://www.w3.org/1999/xlink" viewBox="0 0 512 512" shape-rendering="geometricPrecision" text-rendering="geometricPrecision"><g id="ecehnabsoetd2"><path id="ecehnabsoetd3" d="M458.380000,234.790000L351.830000,288L433,288C423.971105,304.405650,413.792338,320.151660,402.540000,335.120000L255.730000,384L356.730000,384C321.160000,414.070000,277.620000,435.100000,224.140000,440.540000C182.313176,445.337797,140.250962,447.794960,98.150000,447.900000L98.090000,447.900000L305,241C314.388841,231.611159,314.388841,216.388841,305,207C295.611159,197.611159,280.388841,197.611159,271,207L64,414C64.080000,351.190000,68,313.950000,71,287.560000C96.440000,38.200000,460.210000,3.560000,512,0C510.190000,26.260000,500.290000,132.860000,458.380000,234.790000Z" opacity="0.4" fill="rgb(98,158,7)" stroke="none" stroke-width="1"/><path id="ecehnabsoetd4" d="M24,512C14.274592,512.023908,5.496179,506.176229,1.771191,497.192433C-1.953798,488.208637,0.111119,477.864943,7,471L271,207C280.388841,197.611159,295.611159,197.611159,305,207C314.388841,216.388841,314.388841,231.611159,305,241L41,505C36.492091,509.504802,30.372903,512.024468,24,512Z" fill="rgb(138,115,98)" stroke="none" stroke-width="1"/></g></svg>