<svg id="tree" xmlns="http://www.w3.org/2000/svg" xmlns:xlink="http://www.w3.org/1999/xlink" viewBox="0 0 512 512" shape-rendering="geometricPrecision" text-rendering="geometricPrecision"><style><![CDATA[#tree-ellipse1_tk {animation: tree-ellipse1_tk__tk 2000ms linear infinite normal forwards}@keyframes tree-ellipse1_tk__tk { 0% {transform: translate(10.000009px,28.315246px) skewX(0deg) skewY(0deg)} 50% {transform: translate(10.000009px,28.315246px) skewX(0.100000deg) skewY(0.100000deg)} 100% {transform: translate(10.000009px,28.315246px) skewX(0deg) skewY(0deg)} }#tree-g1_tk {animation: tree-g1_tk__tk 2000ms linear infinite normal forwards}@keyframes tree-g1_tk__tk { 0% {transform: translate(146.540009px,263.976482px) skewX(0deg) skewY(0deg)} 50% {transform: translate(146.540009px,263.976482px) skewX(0.300000deg) skewY(0.300000deg)} 100% {transform: translate(146.540009px,263.976482px) skewX(0deg) skewY(0deg)} }#tree-ellipse2_tk {animation: tree-ellipse2_tk__tk 2000ms linear infinite normal forwards}@keyframes tree-ellipse2_tk__tk { 0% {transform: translate(0px,-2px) skewX(0deg) skewY(0deg)} 50% {transform: translate(0px,-2px) skewX(1.200000deg) skewY(1.200000deg)} 100% {transform: translate(0px,-2px) skewX(0deg) skewY(0deg)} }#tree-path1_tk {animation: tree-path1_tk__tk 2000ms linear infinite normal forwards}@keyframes tree-path1_tk__tk { 0% {transform: translate(0px,0px) skewX(0deg) skewY(0deg)} 50% {transform: translate(0px,0px) skewX(2deg) skewY(-0.200000deg)} 100% {transform: translate(0px,0px) skewX(0deg) skewY(0deg)} }#tree-g2_tk {animation: tree-g2_tk__tk 2000ms linear infinite normal forwards}@keyframes tree-g2_tk__tk { 0% {transform: translate(146.452774px,126.172943px) skewX(0deg) skewY(0deg)} 50% {transform: translate(146.452774px,126.172943px) skewX(0deg) skewY(0.900000deg)} 100% {transform: translate(146.452774px,126.172943px) skewX(0deg) skewY(0deg)} }#tree-palm-tree_tk {animation: tree-palm-tree_tk__tk 2000ms linear infinite normal forwards}@keyframes tree-palm-tree_tk__tk { 0% {transform: translate(0px,14px) skewX(0deg) skewY(0deg)} 50% {transform: translate(0px,14px) skewX(1.200000deg) skewY(1.200000deg)} 100% {transform: translate(0px,14px) skewX(0deg) skewY(0deg)} }]]></style><g id="tree-palm-tree-island" transform="matrix(1 0 0 1 53.45999146000000 52.90352630999999)"><g id="tree-ellipse1_tk" transform="translate(10.000009,28.315246) skewX(0) skewY(0)"><ellipse id="tree-ellipse1" rx="145" ry="47.960000" transform="translate(191.540000,306.660000)" fill="rgb(51,171,204)" stroke="none" stroke-width="1"/></g><g id="tree-g1_tk" transform="translate(146.540009,263.976482) skewX(0) skewY(0)"><g id="tree-g1" transform="translate(-146.540009,-239.976482)"><g id="tree-ellipse2_tk" transform="translate(0,-2) skewX(0) skewY(0)"><ellipse id="tree-ellipse2" rx="105.430000" ry="45.700000" transform="translate(200,294.880000)" fill="rgb(255,179,92)" stroke="none" stroke-width="1"/></g><g id="tree-path1_tk" transform="translate(0,0) skewX(0) skewY(0)"><path id="tree-path1" d="M315.720000,307.440000C304.940000,302.730000,303.320000,294.880000,287.960000,294.880000C269.710000,294.880000,269.710000,309.880000,251.460000,309.880000C233.210000,309.880000,233.210000,294.880000,214.970000,294.880000C196.730000,294.880000,196.720000,309.880000,178.480000,309.880000C160.240000,309.880000,160.230000,294.880000,141.990000,294.880000C123.750000,294.880000,123.740000,309.880000,105.500000,309.880000C95.170000,309.880000,90.040000,303.880000,84.300000,299.390000L84.300000,333.120000C207.190000,349.650000,104.110000,349.650000,207.190000,349.650000C310.270000,349.650000,315.740000,333.120000,315.740000,333.120000Z" transform="translate(0,0)" fill="rgb(51,171,204)" stroke="none" stroke-width="1"/></g></g></g><g id="tree-g2_tk" transform="translate(146.452774,126.172943) skewX(0) skewY(0)"><g id="tree-g2" transform="translate(-146.395004,-106.896477)"><path id="tree-path2" d="M219.790000,277.620000L179.920000,277.620000C177.850000,277.620000,176.250000,275.530000,176.510000,273.150000L181.410000,227.150000C181.492335,225.288151,182.960560,223.785480,184.820000,223.660000L214.890000,223.660000C216.749440,223.785480,218.217665,225.288151,218.300000,227.150000L223.200000,273.150000C223.460000,275.530000,221.860000,277.620000,219.790000,277.620000Z" fill="rgb(153,101,63)" stroke="none" stroke-width="1"/><path id="tree-path3" d="M219.790000,232.200000L179.920000,232.200000C177.850000,232.200000,176.250000,230.110000,176.510000,227.730000L181.410000,181.730000C181.492335,179.868151,182.960560,178.365480,184.820000,178.240000L214.890000,178.240000C216.749440,178.365480,218.217665,179.868151,218.300000,181.730000L223.200000,227.730000C223.460000,230.110000,221.860000,232.200000,219.790000,232.200000Z" fill="rgb(184,125,82)" stroke="none" stroke-width="1"/><path id="tree-path4" d="M219.790000,186.780000L179.920000,186.780000C177.850000,186.780000,176.250000,184.690000,176.510000,182.310000L181.410000,136.310000C181.492335,134.448151,182.960560,132.945480,184.820000,132.820000L214.890000,132.820000C216.749440,132.945480,218.217665,134.448151,218.300000,136.310000L223.200000,182.310000C223.460000,184.690000,221.860000,186.780000,219.790000,186.780000Z" fill="rgb(153,101,63)" stroke="none" stroke-width="1"/></g></g><g id="tree-palm-tree_tk" transform="translate(0,14) skewX(0) skewY(0)"><g id="tree-palm-tree" transform="translate(1,1)"><path id="tree-path5" d="M200,134.380000C214.192651,111.890576,210.918188,82.570468,192.113860,63.766140C173.309532,44.961812,143.989424,41.687349,121.500000,55.880000Z" fill="rgb(40,133,70)" stroke="none" stroke-width="1"/><path id="tree-path6" d="M200,134.380000C185.807349,111.890576,189.081812,82.570468,207.886140,63.766140C226.690468,44.961812,256.010576,41.687349,278.500000,55.880000Z" fill="rgb(71,150,77)" stroke="none" stroke-width="1"/><path id="tree-path7" d="M200,134.310000C194.119989,108.388562,171.079983,89.989603,144.500000,89.989603C117.920017,89.989603,94.880011,108.388562,89,134.310000Z" fill="rgb(71,150,77)" stroke="none" stroke-width="1"/><path id="tree-path8" d="M200,134.310000C205.880011,108.388562,228.920017,89.989603,255.500000,89.989603C282.079983,89.989603,305.119989,108.388562,311,134.310000Z" fill="rgb(40,133,70)" stroke="none" stroke-width="1"/><path id="tree-path9" d="M200,134.370000C177.510576,120.177349,148.190468,123.451812,129.386140,142.256140C110.581812,161.060468,107.307349,190.380576,121.500000,212.870000Z" fill="rgb(40,133,70)" stroke="none" stroke-width="1"/><path id="tree-path10" d="M200,134.370000C222.489424,120.177349,251.809532,123.451812,270.613860,142.256140C289.418188,161.060468,292.692651,190.380576,278.500000,212.870000Z" fill="rgb(71,150,77)" stroke="none" stroke-width="1"/></g></g></g></svg>